<?xml version="1.0" encoding="UTF-8"?>
<svg id="Layer_1" xmlns="http://www.w3.org/2000/svg" version="1.1" viewBox="0 0 1024 1024">
  <!-- Generator: Adobe Illustrator 30.4.0, SVG Export Plug-In . SVG Version: 2.1.4 Build 226)  -->
  <defs>
    <style>
      .st0 {
        fill: #fff;
        stroke: #000;
        stroke-miterlimit: 10;
      }
    </style>
  </defs>
  <circle class="st0" cx="512.01" cy="512" r="504.04"/>
  <path d="M512,7.96C234.07,7.96,7.96,234.07,7.96,512s226.11,504.04,504.04,504.04,504.04-226.11,504.04-504.04S789.93,7.96,512,7.96ZM512,1009.92c-274.55,0-497.91-223.36-497.91-497.92S237.45,14.08,512,14.08s497.92,223.37,497.92,497.92-223.37,497.92-497.92,497.92h0Z"/>
  <path d="M512.01,990.55c-219.31,0-404.76-147.41-462.7-348.31-.52.02-1.02.08-1.56.08-1.58,0-3.11-.08-4.6-.23,58.07,204.29,246.2,354.39,468.85,354.39s409.3-148.92,468.16-351.98c-2,.3-4.07.51-6.26.52-58.85,199.49-243.61,345.53-461.91,345.53h.02Z"/>
  <path d="M511.33,32.28c219.31,0,404.76,147.41,462.7,348.32.52-.02,1.02-.08,1.56-.08,1.58,0,3.11.08,4.6.23C922.11,176.46,733.98,26.35,511.33,26.35S102.03,175.27,43.16,378.33c2-.3,4.07-.5,6.26-.52C108.26,178.32,293.03,32.28,511.33,32.28Z"/>
  <circle cx="974.17" cy="506.75" r="12.98"/>
  <circle cx="47.35" cy="506.75" r="12.98"/>
  <path d="M750.47,651.71c-1.2.24-2.69.54-3.36,1.06-1.36,1.45-.84,7.94,3.63,5.83l154.2-.03c.43-2.33.23-4.72-.31-6.44-18.34-1.48-41.25-12.82-42.99-32.27-.58-8.03-1.98-24.2-2.78-32.22-.93-9.19-2.7-23.43-2.56-32.78-1.41-2.48-1.45-17.04-1.6-20.04-.83-3.71-1.61-13.78-1.88-17.71-2.55-27.71-4.88-57.35-7.45-84.98-1.78-26.78-5.84-55.39-6.73-82.13-1.3-10.38-2.15-24.85-2.54-35.32-.64-13.87,10.42-24.71,24.07-28.35,5.77-1.54,9.32-.14,12.47-2.67l-.2-5.61h-94.37c-7.65,13.51-13.85,31.65-20.43,45.85-18.32,41.57-37.37,85.89-55.51,127.54-10.08,23.28-22.75,51.85-32.71,75.17-4.54,8.97-10.08,26.35-16.05,34.42-24.99-58-52.24-121.34-77.38-179.41-14.74-33.75-29.35-70.36-45.25-103.56h-121.45l-.4,5.82c24.79,2.49,40.94,9.79,54.69,32.04,10.08,14.06,3.92,20.92,4.26,28.41.15,8.99-1.99,22.41-2.57,31.47-1.94,17.2-2.86,35.86-4.81,52.97-.95,12.59-3.43,30.08-3.61,42.77-7.27,1.05-15.74,1.17-22.79,3.02l-17.92,5.66c-7.45,2.35-18.1,9.25-18.66,7.86l-1.05-2.6-16.54-41.15c-25.65-63.42-52.5-130.63-78.05-194.09-1.75-.59-4.87-.5-6.47.56-31.2,77.4-64.21,156.36-95.52,233.7-9.77,23.61-19.87,49.54-29.97,72.99-14.88,34.44-26.59,81.28-66.99,93.33-1.06,1.59-1.12,4.63-.08,6.5l103.45-.02c4.13-7.8-3.23-6.63-7.87-7.73-4.82.04-11.82-3.68-16.12-5.62-30.71-18.84-18.48-47-7.09-73.62,4.22-9.78,8.96-22.39,13.75-34.04,3.68-5.34,7.48-10.6,11.11-15.91,12.72-17.26,27.92-32.65,45.34-45.11,13.03-9.26,26.51-18.02,40.7-25.43,2.7-1.46,5.43-2.82,8.16-4.18,9.73,24.39,19.44,48.8,28.31,72.97h.1c4.92,10.47,10.15,24.29,14.48,34.76-40.91,70.35-26.84,159.57,28.98,217.61,13.99,14.58,30.48,26.98,48.47,36.71,3.23,5.05,8.88,8.41,15.32,8.41,10.04,0,18.18-8.14,18.18-18.18s-8.14-18.18-18.18-18.18-18.18,8.14-18.18,18.18c0,.45.04.89.07,1.33-80.17-47.38-119.13-150.94-71.7-237.98,12.78,32.92,43.77,88.39-16.04,89.49-1.3,1.85-.6,5.81,1.14,7.03,44.41-1.05,130.63,1.71,175.91.79,4.86-3.12,11.39-2.49,16.88-4.96,10.7-3.33,25.38-13.25,31.95-22.2,21.39-26.03,22.28-64.17,10.15-94.48-15.81-39.07-52.4-62.58-93.61-65.44,3.1-21.07,3.64-47.64,6.86-69.33.53-13.76,2.69-29.07,3.43-42.8,1.46-2.32,1.26-11.45,1.39-14.1,2.82-2.06,11.59,24.61,13.11,26.89,9.01,20.19,20.72,47.92,29.77,67.82,32.35,73.39,65.32,151.82,98.42,225.01,31.57-70.54,62.87-143.35,94.23-214.04,11.13-25.96,24.32-55.93,35.52-81.93l9.07-20.95c.18-.42.45-1.07.72-1.03l1.54.21c2.98,38.6,6.64,78.6,10.54,117.12,2.58,32.84,5.72,67.58,8.81,100.37.92,10,1.78,24.99,3.01,34.9,5.06,29.04.08,47.38-32.41,52.07v-.02ZM239.49,467.6c-5.03,4.14-10.87,9.47-15.53,13.94-8.41,8.34-16.18,17.35-23.21,26.87,17.27-45.8,41.32-101.48,59.24-146.82l1.89.41c9.15,25.27,19.3,50.86,29.52,76.48-18.69,6.91-36.43,16.5-51.91,29.12h0ZM447.52,567.17c-.2,3.17-.14,15.8-1.69,18.55-.42,1.31.94,16.33-1.28,16.63-1.91.3-5.02-10.92-6-12.15l-9.52-24.04c-8.84-22-19.75-49.42-28.74-71.35,11.56-7.69,28.8-12.88,42.32-15.47,2.18.03,10.07-.81,11.89-1.34,2.99,1.47.4,8.25.32,10.53-.22,4.21-.81,12.59-1.7,16.56-1.09,19.51-3,42.72-5.6,62.08h0ZM477.27,479.16c54.83,7.28,93.92,62.39,82.8,116.38-6.6,40.21-56.18,73.58-91.78,44.6-16.85-12.18-14.42-30.4-12.24-48.58.33-5.11,1.76-20.1,2.09-25.44,2.67-28.44,5.54-58.44,8.12-86.94l11-.02h0Z"/>
</svg>